<svg width="1761" height="588" viewBox="0 0 1761 588" fill="none" xmlns="http://www.w3.org/2000/svg">
<mask id="mask0" mask-type="alpha" maskUnits="userSpaceOnUse" x="0" y="0" width="1761" height="588">
<path fill-rule="evenodd" clip-rule="evenodd" d="M459.633 1.3481C456.364 -0.972637 450.775 0.671 450.775 3.95301V583.362C450.774 586.644 456.364 588.288 459.633 585.967L867.723 296.263C869.749 294.824 869.749 292.491 867.723 291.053L459.633 1.3481ZM863.238 293.658L456.54 582.374V4.94121L863.238 293.658ZM1350.63 1.3481C1347.36 -0.972637 1341.77 0.671 1341.77 3.95301V583.362C1341.77 586.644 1347.36 588.288 1350.63 585.967L1758.72 296.263C1760.75 294.824 1760.75 292.491 1758.72 291.053L1350.63 1.3481ZM1754.24 293.658L1347.54 582.374V4.94121L1754.24 293.658ZM1.63084 294.815L409.72 584.52C411.173 585.552 413.657 584.821 413.657 583.362V3.95304C413.657 2.49434 411.173 1.76386 409.72 2.79529L1.63084 292.5C0.730155 293.139 0.730143 294.176 1.63084 294.815ZM1298.68 585.967C1301.95 588.288 1307.54 586.644 1307.54 583.362V3.95304C1307.54 0.671009 1301.95 -0.97261 1298.68 1.34812L890.592 291.053C888.566 292.491 888.566 294.824 890.592 296.263L1298.68 585.967ZM895.077 293.658L1301.77 4.94122V582.374L895.077 293.658Z" fill="#444444"/>
</mask>
<g mask="url(#mask0)">
<rect x="-2" width="1762" height="587" fill="url(#paint0_linear)"/>
</g>
<defs>
<linearGradient id="paint0_linear" x1="-2.00003" y1="587" x2="1937" y2="587" gradientUnits="userSpaceOnUse">
<stop stop-color="#4158D0"/>
<stop offset="0.457209" stop-color="#C850C0"/>
<stop offset="0.979167" stop-color="#FFCC70"/>
</linearGradient>
</defs>
</svg>
